<svg width="35" height="35" viewBox="0 0 35 35" fill="none" xmlns="http://www.w3.org/2000/svg">
<path d="M13.1251 32.0833H21.8751C29.1667 32.0833 32.0834 29.1667 32.0834 21.875V13.125C32.0834 5.83334 29.1667 2.91667 21.8751 2.91667H13.1251C5.83341 2.91667 2.91675 5.83334 2.91675 13.125V21.875C2.91675 29.1667 5.83341 32.0833 13.1251 32.0833Z" stroke="#E1E1E7" stroke-width="2" stroke-linecap="round" stroke-linejoin="round"/>
<path d="M22.6042 14.2188C23.8124 14.2188 24.7917 13.2394 24.7917 12.0312C24.7917 10.8231 23.8124 9.84375 22.6042 9.84375C21.3961 9.84375 20.4167 10.8231 20.4167 12.0312C20.4167 13.2394 21.3961 14.2188 22.6042 14.2188Z" stroke="#E1E1E7" stroke-width="2" stroke-miterlimit="10" stroke-linecap="round" stroke-linejoin="round"/>
<path d="M12.3958 14.2188C13.6039 14.2188 14.5833 13.2394 14.5833 12.0312C14.5833 10.8231 13.6039 9.84375 12.3958 9.84375C11.1876 9.84375 10.2083 10.8231 10.2083 12.0312C10.2083 13.2394 11.1876 14.2188 12.3958 14.2188Z" stroke="#E1E1E7" stroke-width="2" stroke-miterlimit="10" stroke-linecap="round" stroke-linejoin="round"/>
<path d="M12.25 19.3958H22.75C23.4792 19.3958 24.0625 19.9792 24.0625 20.7083C24.0625 24.3396 21.1313 27.2708 17.5 27.2708C13.8688 27.2708 10.9375 24.3396 10.9375 20.7083C10.9375 19.9792 11.5208 19.3958 12.25 19.3958Z" stroke="#E1E1E7" stroke-width="2" stroke-miterlimit="10" stroke-linecap="round" stroke-linejoin="round"/>
</svg>
