<svg width="35" height="35" viewBox="0 0 35 35" fill="none" xmlns="http://www.w3.org/2000/svg">
<path d="M25.0832 32.0833C28.9492 32.0833 32.0832 28.9494 32.0832 25.0834C32.0832 21.2174 28.9492 18.0834 25.0832 18.0834C21.2172 18.0834 18.0833 21.2174 18.0833 25.0834C18.0833 28.9494 21.2172 32.0833 25.0832 32.0833Z" stroke="#E1E1E7" stroke-width="2" stroke-miterlimit="10" stroke-linecap="round" stroke-linejoin="round"/>
<path d="M27.6935 25.1709H22.4727" stroke="#E1E1E7" stroke-width="2" stroke-miterlimit="10" stroke-linecap="round" stroke-linejoin="round"/>
<path d="M25.083 22.6188V27.8541" stroke="#E1E1E7" stroke-width="2" stroke-miterlimit="10" stroke-linecap="round" stroke-linejoin="round"/>
<path d="M32.0834 12.6729C32.0834 15.5458 31.3397 18.0833 30.173 20.2854C28.8897 18.9291 27.0813 18.0834 25.0834 18.0834C21.2188 18.0834 18.0834 21.2188 18.0834 25.0834C18.0834 26.8771 18.7688 28.5105 19.8772 29.75C19.3376 29.998 18.8417 30.2021 18.4042 30.3479C17.9084 30.5229 17.0918 30.5229 16.5959 30.3479C12.3668 28.9042 2.91675 22.8813 2.91675 12.6729C2.91675 8.16667 6.54799 4.5208 11.0251 4.5208C13.6647 4.5208 16.0272 5.80419 17.5001 7.77294C18.973 5.80419 21.3355 4.5208 23.9751 4.5208C28.4522 4.5208 32.0834 8.16667 32.0834 12.6729Z" stroke="#E1E1E7" stroke-width="2" stroke-linecap="round" stroke-linejoin="round"/>
</svg>
