<svg width="35" height="35" viewBox="0 0 35 35" fill="none" xmlns="http://www.w3.org/2000/svg">
<path d="M32.0834 29.2688V17.7625C32.0834 9.59581 25.5209 2.91666 17.5001 2.91666C9.47925 2.91666 2.91675 9.59581 2.91675 17.7625V29.2688C2.91675 31.1063 4.01047 31.6021 5.35214 30.3771L6.81047 29.05C7.35006 28.5542 8.2251 28.5542 8.76468 29.05L11.6813 31.7187C12.2209 32.2146 13.0959 32.2146 13.6355 31.7187L16.5521 29.05C17.0917 28.5542 17.9668 28.5542 18.5063 29.05L21.423 31.7187C21.9626 32.2146 22.8376 32.2146 23.3772 31.7187L26.2939 29.05C26.8335 28.5542 27.7084 28.5542 28.248 29.05L29.7063 30.3771C30.9897 31.6021 32.0834 31.1063 32.0834 29.2688Z" stroke="#E1E1E7" stroke-width="2" stroke-linecap="round" stroke-linejoin="round"/>
<path d="M11.6667 20.4167C15.123 23.0125 19.8772 23.0125 23.3334 20.4167" stroke="#E1E1E7" stroke-width="2" stroke-linecap="round" stroke-linejoin="round"/>
<path d="M17.4999 16.0417C19.1107 16.0417 20.4166 14.7358 20.4166 13.125C20.4166 11.5142 19.1107 10.2083 17.4999 10.2083C15.8891 10.2083 14.5833 11.5142 14.5833 13.125C14.5833 14.7358 15.8891 16.0417 17.4999 16.0417Z" stroke="#E1E1E7" stroke-width="2" stroke-linecap="round" stroke-linejoin="round"/>
</svg>
